<?xml version="1.0" encoding="UTF-8" standalone="no"?>
<!-- Created with Inkscape (http://www.inkscape.org/) -->

<svg
   width="189.82503mm"
   height="177.44971mm"
   viewBox="0 0 189.82503 177.44971"
   version="1.1"
   id="svg1"
   xmlns="http://www.w3.org/2000/svg"
   xmlns:svg="http://www.w3.org/2000/svg">
  <defs
     id="defs1">
    <rect
       x="312.65271"
       y="555.06189"
       width="46.829041"
       height="46.829041"
       id="rect44" />
  </defs>
  <g
     id="layer1"
     transform="translate(-12.276331,-13.791678)">
    <path
       style="fill:none;stroke:#000000;stroke-width:2.26137;stroke-linecap:square;stroke-linejoin:bevel;stroke-dasharray:2.26137, 6.78411;stroke-dashoffset:0;stroke-opacity:1"
       d="M 48.435765,30.906501 72.550737,129.07264"
       id="path1" />
    <path
       style="fill:none;stroke:#000000;stroke-width:1.4886;stroke-linecap:square;stroke-linejoin:bevel;stroke-dasharray:1.4886, 4.46581;stroke-dashoffset:0;stroke-opacity:1"
       d="m 148.74719,138.89917 0.11335,14.10559"
       id="path1-4" />
    <path
       style="fill:none;stroke:#000000;stroke-width:2;stroke-linecap:square;stroke-linejoin:bevel;stroke-dasharray:2, 6;stroke-dashoffset:0;stroke-opacity:1"
       d="M 37.170552,138.11411 108.2319,124.26625"
       id="path2" />
    <path
       style="fill:none;stroke:#000000;stroke-width:2;stroke-linecap:square;stroke-linejoin:bevel;stroke-dasharray:none;stroke-dashoffset:0;stroke-opacity:1"
       id="path3"
       d="m 38.081594,138.52408 a 5.010736,5.0562887 0 0 1 -5.006133,5.05628 5.010736,5.0562887 0 0 1 -5.015331,-5.04699 5.010736,5.0562887 0 0 1 4.99692,-5.06556 5.010736,5.0562887 0 0 1 5.02451,5.03769" />
    <path
       style="fill:#000000;fill-opacity:1;stroke:#000000;stroke-width:2.08005;stroke-linecap:square;stroke-linejoin:bevel;stroke-dasharray:none;stroke-dashoffset:0;stroke-opacity:1"
       d="m 28.223893,137.33142 4.519382,0.733 0.110229,-4.64238"
       id="path4" />
    <path
       style="fill:#000000;fill-opacity:1;stroke:#000000;stroke-width:1.57119;stroke-linecap:square;stroke-linejoin:bevel;stroke-dasharray:none;stroke-dashoffset:0;stroke-opacity:1"
       d="m 34.221791,142.91596 -0.808667,-4.1047 4.110726,1.14019"
       id="path5" />
    <path
       style="fill:none;fill-opacity:1;stroke:#000000;stroke-width:2;stroke-linecap:square;stroke-linejoin:bevel;stroke-dasharray:none;stroke-dashoffset:0;stroke-opacity:1"
       id="path6"
       d="m 41.361351,138.70628 a 8.3815956,8.6093559 0 0 1 -8.373897,8.60936 8.3815956,8.6093559 0 0 1 -8.38928,-8.59354 8.3815956,8.6093559 0 0 1 8.358485,-8.62514 8.3815956,8.6093559 0 0 1 8.404635,8.57769" />
    <path
       style="fill:none;stroke:#000000;stroke-width:2;stroke-linecap:square;stroke-linejoin:bevel;stroke-dasharray:none;stroke-dashoffset:0;stroke-opacity:1"
       id="path7"
       d="m 118.98221,122.94524 a 5.010736,5.0562887 0 0 1 -5.00613,5.05628 5.010736,5.0562887 0 0 1 -5.01533,-5.04699 5.010736,5.0562887 0 0 1 4.99692,-5.06556 5.010736,5.0562887 0 0 1 5.02451,5.03769" />
    <path
       style="fill:#000000;fill-opacity:1;stroke:#000000;stroke-width:2.08005;stroke-linecap:square;stroke-linejoin:bevel;stroke-dasharray:none;stroke-dashoffset:0;stroke-opacity:1"
       d="m 109.12451,121.75259 4.51938,0.733 0.11023,-4.64238"
       id="path8" />
    <path
       style="fill:#000000;fill-opacity:1;stroke:#000000;stroke-width:1.57119;stroke-linecap:square;stroke-linejoin:bevel;stroke-dasharray:none;stroke-dashoffset:0;stroke-opacity:1"
       d="m 115.1224,127.33713 -0.80866,-4.1047 4.11072,1.14019"
       id="path9" />
    <path
       style="fill:none;fill-opacity:1;stroke:#000000;stroke-width:2;stroke-linecap:square;stroke-linejoin:bevel;stroke-dasharray:none;stroke-dashoffset:0;stroke-opacity:1"
       id="path10"
       d="m 122.26196,123.12744 a 8.3815956,8.6093559 0 0 1 -8.3739,8.60935 8.3815956,8.6093559 0 0 1 -8.38928,-8.59353 8.3815956,8.6093559 0 0 1 8.35849,-8.62514 8.3815956,8.6093559 0 0 1 8.40463,8.57769" />
    <path
       style="fill:none;stroke:#000000;stroke-width:2;stroke-linecap:square;stroke-linejoin:bevel;stroke-dasharray:none;stroke-dashoffset:0;stroke-opacity:1"
       id="path11"
       d="m 50.812196,23.798788 a 5.010736,5.0562887 0 0 1 -5.006133,5.056287 5.010736,5.0562887 0 0 1 -5.01533,-5.046998 5.010736,5.0562887 0 0 1 4.996919,-5.065558 5.010736,5.0562887 0 0 1 5.02451,5.037691" />
    <path
       style="fill:#000000;fill-opacity:1;stroke:#000000;stroke-width:2.08005;stroke-linecap:square;stroke-linejoin:bevel;stroke-dasharray:none;stroke-dashoffset:0;stroke-opacity:1"
       d="m 40.954492,22.606141 4.519382,0.733 0.110229,-4.64238"
       id="path12" />
    <path
       style="fill:#000000;fill-opacity:1;stroke:#000000;stroke-width:1.57119;stroke-linecap:square;stroke-linejoin:bevel;stroke-dasharray:none;stroke-dashoffset:0;stroke-opacity:1"
       d="m 46.95239,28.190681 -0.808668,-4.1047 4.110727,1.14019"
       id="path13" />
    <path
       style="fill:none;stroke:#000000;stroke-width:1.27678;stroke-linecap:square;stroke-linejoin:bevel;stroke-dasharray:none;stroke-dashoffset:0;stroke-opacity:1"
       id="path11-9"
       d="m 152.15102,132.71126 a 3.058948,3.3754628 0 0 1 -3.05614,3.37546 3.058948,3.3754628 0 0 1 -3.06175,-3.36926 3.058948,3.3754628 0 0 1 3.05051,-3.38165 3.058948,3.3754628 0 0 1 3.06736,3.36305" />
    <path
       style="fill:#000000;fill-opacity:1;stroke:#000000;stroke-width:1.32788;stroke-linecap:square;stroke-linejoin:bevel;stroke-dasharray:none;stroke-dashoffset:0;stroke-opacity:1"
       d="m 146.13311,131.91507 2.75898,0.48933 0.0673,-3.09914"
       id="path12-6" />
    <path
       style="fill:#000000;fill-opacity:1;stroke:#000000;stroke-width:1.00303;stroke-linecap:square;stroke-linejoin:bevel;stroke-dasharray:none;stroke-dashoffset:0;stroke-opacity:1"
       d="m 149.7947,135.64318 -0.49368,-2.7402 2.50951,0.76116"
       id="path13-3" />
    <path
       style="fill:none;fill-opacity:1;stroke:#000000;stroke-width:0.8;stroke-linecap:square;stroke-linejoin:bevel;stroke-dasharray:0.8, 4.8;stroke-dashoffset:0;stroke-opacity:1"
       d="M 72.883435,128.63926 76.527607,27.331288"
       id="path14" />
    <path
       style="fill:none;fill-opacity:1;stroke:#d13b2c;stroke-width:0.799999;stroke-linecap:square;stroke-linejoin:bevel;stroke-dasharray:0.799999, 4.79999;stroke-dashoffset:0;stroke-opacity:1"
       d="M 60.493251,158.52147 72.883435,130.46135"
       id="path15" />
    <path
       style="fill:none;fill-opacity:1;stroke:#d13b2c;stroke-width:0.8;stroke-linecap:square;stroke-linejoin:bevel;stroke-dasharray:none;stroke-dashoffset:0;stroke-opacity:1"
       d="m 58.671167,147.58895 1.822084,11.66135 8.381596,-7.28834"
       id="path16" />
    <path
       style="fill:none;fill-opacity:1;stroke:#cd351f;stroke-width:0.799999;stroke-linecap:square;stroke-linejoin:bevel;stroke-dasharray:none;stroke-dashoffset:0;stroke-opacity:0.737679"
       d="m 72.883435,131.19018 33.526375,12.7546"
       id="path17" />
    <path
       style="fill:none;fill-opacity:1;stroke:#cd351f;stroke-width:0.799999;stroke-linecap:square;stroke-linejoin:bevel;stroke-dasharray:none;stroke-dashoffset:0;stroke-opacity:0.737679"
       d="m 99.12147,136.29202 8.01718,7.28834"
       id="path18" />
    <path
       style="fill:none;fill-opacity:1;stroke:#cd351f;stroke-width:0.799999;stroke-linecap:square;stroke-linejoin:bevel;stroke-dasharray:none;stroke-dashoffset:0;stroke-opacity:0.737679"
       d="m 95.926346,145.12267 10.932514,-1.09325"
       id="path19" />
    <path
       style="fill:none;fill-opacity:1;stroke:#28cd1f;stroke-width:0.799999;stroke-linecap:square;stroke-linejoin:bevel;stroke-dasharray:none;stroke-dashoffset:0;stroke-opacity:0.737679"
       d="M 72.883435,131.19018 99.12147,125.72392"
       id="path20" />
    <path
       style="fill:none;fill-opacity:1;stroke:#28cd1f;stroke-width:0.799999;stroke-linecap:square;stroke-linejoin:bevel;stroke-dasharray:none;stroke-dashoffset:0;stroke-opacity:0.737679"
       d="m 90.739878,122.44417 10.568092,2.55092"
       id="path21" />
    <path
       style="fill:none;fill-opacity:1;stroke:#28cd1f;stroke-width:0.799999;stroke-linecap:square;stroke-linejoin:bevel;stroke-dasharray:none;stroke-dashoffset:0;stroke-opacity:0.737679"
       d="m 95.112882,132.64785 6.923928,-7.28834"
       id="path22" />
    <path
       style="fill:none;fill-opacity:1;stroke:#28cd1f;stroke-width:0.799999;stroke-linecap:square;stroke-linejoin:bevel;stroke-dasharray:none;stroke-dashoffset:0;stroke-opacity:0.737679"
       d="m 73.612269,130.46135 c 0,-0.72884 0,-1.45767 0,0 z"
       id="path23" />
    <path
       style="fill:none;fill-opacity:1;stroke:#1f2dcd;stroke-width:0.799999;stroke-linecap:square;stroke-linejoin:bevel;stroke-dasharray:none;stroke-dashoffset:0;stroke-opacity:0.737679"
       d="M 73.247853,128.27484 74.705522,87.824537"
       id="path24" />
    <path
       style="fill:none;fill-opacity:1;stroke:#1f2dcd;stroke-width:0.799999;stroke-linecap:square;stroke-linejoin:bevel;stroke-dasharray:none;stroke-dashoffset:0;stroke-opacity:0.737679"
       d="M 77.620857,98.757054 75.069938,86.731287"
       id="path25" />
    <path
       style="fill:none;fill-opacity:1;stroke:#1f2dcd;stroke-width:0.799999;stroke-linecap:square;stroke-linejoin:bevel;stroke-dasharray:none;stroke-dashoffset:0;stroke-opacity:0.737679"
       d="m 70.332515,95.841717 4.373007,-9.11043"
       id="path26" />
    <path
       style="fill:none;fill-opacity:1;stroke:#000000;stroke-width:0.799999;stroke-linecap:square;stroke-linejoin:bevel;stroke-dasharray:none;stroke-dashoffset:0;stroke-opacity:0.737679"
       d="m 30.611043,124.26625 35.712884,-7.65276"
       id="path27" />
    <path
       style="fill:none;fill-opacity:1;stroke:#000000;stroke-width:0.799999;stroke-linecap:square;stroke-linejoin:bevel;stroke-dasharray:none;stroke-dashoffset:0;stroke-opacity:0.737679"
       d="m 59.400001,114.79141 7.288342,1.82208"
       id="path28" />
    <path
       style="fill:none;fill-opacity:1;stroke:#000000;stroke-width:0.799999;stroke-linecap:square;stroke-linejoin:bevel;stroke-dasharray:none;stroke-dashoffset:0;stroke-opacity:0.737679"
       d="m 61.586502,120.25767 4.737425,-4.00859"
       id="path29" />
    <path
       style="fill:none;fill-opacity:1;stroke:#000000;stroke-width:0.799999;stroke-linecap:square;stroke-linejoin:bevel;stroke-dasharray:none;stroke-dashoffset:0;stroke-opacity:0.737679"
       d="m 33.890798,119.89325 -3.644172,4.73742"
       id="path30" />
    <path
       style="fill:none;fill-opacity:1;stroke:#000000;stroke-width:0.799999;stroke-linecap:square;stroke-linejoin:bevel;stroke-dasharray:none;stroke-dashoffset:0;stroke-opacity:0.737679"
       d="m 36.0773,126.08834 -5.830674,-1.45767"
       id="path31" />
    <path
       style="fill:none;fill-opacity:1;stroke:#000000;stroke-width:0.799999;stroke-linecap:square;stroke-linejoin:bevel;stroke-dasharray:none;stroke-dashoffset:0;stroke-opacity:0.737679"
       d="M 35.348466,47.009815 C 40.358589,42.565768 45.424469,42.224114 51.74724,41.907974"
       id="path32" />
    <path
       style="fill:none;fill-opacity:1;stroke:#000000;stroke-width:0.799999;stroke-linecap:square;stroke-linejoin:bevel;stroke-dasharray:none;stroke-dashoffset:0;stroke-opacity:0.737679"
       d="m 76.892023,40.085889 c 1.963979,-1.976912 8.048207,1.678265 12.754602,4.737422"
       id="path33" />
    <path
       style="fill:none;fill-opacity:1;stroke:#000000;stroke-width:0.799999;stroke-linecap:square;stroke-linejoin:bevel;stroke-dasharray:none;stroke-dashoffset:0;stroke-opacity:0.737679"
       d="m 45.916564,38.992637 5.101842,2.915337"
       id="path34" />
    <path
       style="fill:none;fill-opacity:1;stroke:#000000;stroke-width:0.799999;stroke-linecap:square;stroke-linejoin:bevel;stroke-dasharray:none;stroke-dashoffset:0;stroke-opacity:0.737679"
       d="m 46.645399,45.916562 4.737423,-4.008588"
       id="path35" />
    <path
       style="fill:none;fill-opacity:1;stroke:#000000;stroke-width:0.799999;stroke-linecap:square;stroke-linejoin:bevel;stroke-dasharray:none;stroke-dashoffset:0;stroke-opacity:0.737679"
       d="M 76.892023,39.721473 83.81595,37.534969"
       id="path36" />
    <path
       style="fill:none;fill-opacity:1;stroke:#000000;stroke-width:0.799999;stroke-linecap:square;stroke-linejoin:bevel;stroke-dasharray:none;stroke-dashoffset:0;stroke-opacity:0.737679"
       d="M 80.536196,43.365642 76.892023,38.992638"
       id="path37" />
    <path
       style="fill:none;fill-opacity:1;stroke:#000000;stroke-width:0.799999;stroke-linecap:square;stroke-linejoin:bevel;stroke-dasharray:none;stroke-dashoffset:0;stroke-opacity:0.737679"
       d="m 72.883435,154.14846 c 8.30499,0.77873 14.628537,-2.86924 20.407362,-7.28834"
       id="path38" />
    <path
       style="fill:none;fill-opacity:1;stroke:#000000;stroke-width:0.799999;stroke-linecap:square;stroke-linejoin:bevel;stroke-dasharray:none;stroke-dashoffset:0;stroke-opacity:0.737679"
       d="m 77.256442,151.23312 -5.466258,2.91534"
       id="path39" />
    <path
       style="fill:none;fill-opacity:1;stroke:#000000;stroke-width:0.799999;stroke-linecap:square;stroke-linejoin:bevel;stroke-dasharray:none;stroke-dashoffset:0;stroke-opacity:0.737679"
       d="m 77.256442,157.79263 -5.830676,-3.64417"
       id="path40" />
    <text
       xml:space="preserve"
       style="font-size:12.6759px;font-family:'Times New Roman';-inkscape-font-specification:'Times New Roman, ';text-align:center;writing-mode:lr-tb;direction:ltr;text-anchor:middle;fill:#000000;fill-opacity:1;stroke:#000000;stroke-width:0.538973;stroke-linecap:square;stroke-linejoin:bevel;stroke-dasharray:none;stroke-dashoffset:0;stroke-opacity:0.737679"
       x="51.757004"
       y="110.38507"
       id="text43"
       transform="scale(0.94530778,1.0578565)"><tspan
         id="tspan43"
         style="fill:#000000;fill-opacity:1;stroke-width:0.538973;stroke-dasharray:none"
         x="51.757004"
         y="110.38507">d</tspan></text>
    <text
       xml:space="preserve"
       style="font-size:12.6759px;font-family:'Times New Roman';-inkscape-font-specification:'Times New Roman, ';text-align:center;writing-mode:lr-tb;direction:ltr;text-anchor:middle;fill:#000000;fill-opacity:1;stroke:#000000;stroke-width:0.538973;stroke-linecap:square;stroke-linejoin:bevel;stroke-dasharray:none;stroke-dashoffset:0;stroke-opacity:0.737679"
       x="25.845451"
       y="21.876831"
       id="text43-8"
       transform="scale(0.94530779,1.0578565)"><tspan
         id="tspan43-9"
         style="fill:#000000;fill-opacity:1;stroke-width:0.538973;stroke-dasharray:none"
         x="25.845451"
         y="21.876831">CoM</tspan></text>
    <text
       xml:space="preserve"
       transform="matrix(0.5504063,0,0,0.56372856,-125.55566,-156.77281)"
       id="text44"
       style="font-size:26.6667px;font-family:'Times New Roman';-inkscape-font-specification:'Times New Roman, ';text-align:center;writing-mode:lr-tb;direction:ltr;white-space:pre;shape-inside:url(#rect44);fill:#000000;fill-opacity:1;stroke:#000000;stroke-width:1.13386;stroke-linecap:square;stroke-linejoin:bevel;stroke-dasharray:none;stroke-dashoffset:0;stroke-opacity:0.737679"><tspan
         x="329.40071"
         y="578.73242"
         id="tspan4">v
</tspan><tspan
         x="312.65234"
         y="625.56054"
         id="tspan5">r</tspan></text>
    <path
       style="fill:none;fill-opacity:1;stroke:#000000;stroke-width:1.591;stroke-linecap:square;stroke-linejoin:bevel;stroke-dasharray:none;stroke-dashoffset:0;stroke-opacity:0.737679"
       id="path44"
       d="m 92.381867,36.230499 a 2.5225604,4.9918866 0 0 1 -2.520244,4.991885 2.5225604,4.9918866 0 0 1 -2.524873,-4.982714 2.5225604,4.9918866 0 0 1 2.515605,-5.001038 2.5225604,4.9918866 0 0 1 2.529495,4.973526" />
    <path
       style="fill:none;fill-opacity:1;stroke:#000000;stroke-width:1.591;stroke-linecap:square;stroke-linejoin:bevel;stroke-dasharray:none;stroke-dashoffset:0;stroke-opacity:0.737679"
       d="m 86.962533,35.798814 c 1.846721,0 3.693441,0 5.540158,0"
       id="path45" />
    <path
       style="fill:none;fill-opacity:1;stroke:#000000;stroke-width:1.34757;stroke-linecap:square;stroke-linejoin:bevel;stroke-dasharray:none;stroke-dashoffset:0;stroke-opacity:0.737679"
       d="m 86.125379,156.02983 -0.06364,9.35628"
       id="path46" />
    <path
       style="fill:none;fill-opacity:1;stroke:#000000;stroke-width:1.12973;stroke-linecap:square;stroke-linejoin:bevel;stroke-dasharray:none;stroke-dashoffset:0;stroke-opacity:0.737679"
       d="m 82.104015,156.86983 c 2.290603,0.35644 1.309835,3.42398 3.39308,3.98754 2.890861,-0.008 1.87227,-3.65137 5.061806,-4.5142"
       id="path47" />
    <path
       style="fill:#5a5a5a;fill-opacity:0.157393;stroke:#000000;stroke-width:1.591;stroke-linecap:square;stroke-linejoin:bevel;stroke-dasharray:none;stroke-dashoffset:0;stroke-opacity:0.737679"
       id="path48"
       d="M 50.28957,139.20737 A 17.127605,29.153374 0 0 1 33.177697,168.36073 17.127605,29.153374 0 0 1 16.034388,139.26092 17.127605,29.153374 0 0 1 33.114767,110.0541 17.127605,29.153374 0 0 1 50.289454,139.10025" />
    <path
       style="fill:#5a5a5a;fill-opacity:0.157393;stroke:#000000;stroke-width:0.295532;stroke-linecap:square;stroke-linejoin:bevel;stroke-dasharray:none;stroke-dashoffset:0;stroke-opacity:0.737679"
       id="path48-9"
       d="m 151.70257,161.64694 a 3.0881276,5.5790172 0 0 1 -3.08529,5.57902 3.0881276,5.5790172 0 0 1 -3.09096,-5.56877 3.0881276,5.5790172 0 0 1 3.07961,-5.58924 3.0881276,5.5790172 0 0 1 3.09662,5.55849" />
    <path
       style="fill:#5a5a5a;fill-opacity:0.157393;stroke:#000000;stroke-width:1.591;stroke-linecap:square;stroke-linejoin:bevel;stroke-dasharray:none;stroke-dashoffset:0;stroke-opacity:0.737679"
       id="path49"
       d="M 131.26122,125.0703 A 17.127605,29.153374 0 0 1 114.14935,154.22366 17.127605,29.153374 0 0 1 97.006037,125.12385 17.127605,29.153374 0 0 1 114.08642,95.917034 17.127605,29.153374 0 0 1 131.2611,124.96318" />
    <text
       xml:space="preserve"
       style="font-size:5.64444px;font-family:Calibri;-inkscape-font-specification:Calibri;text-align:start;writing-mode:lr-tb;direction:ltr;text-anchor:start;fill:#000000;fill-opacity:0.977041;stroke:#030303;stroke-width:0.57282"
       x="139.20737"
       y="124.99509"
       id="text2"><tspan
         id="tspan2"
         style="stroke-width:0.57282"
         x="139.20737"
         y="124.99509">Legend</tspan></text>
    <text
       xml:space="preserve"
       style="font-size:5.64444px;font-family:Calibri;-inkscape-font-specification:Calibri;text-align:start;writing-mode:lr-tb;direction:ltr;text-anchor:start;fill:#000000;fill-opacity:0.977041;stroke:#030303;stroke-width:0.57282"
       x="156.86888"
       y="134.48103"
       id="text2-9"><tspan
         id="tspan2-1"
         style="stroke-width:0.57282"
         x="156.86888"
         y="134.48103">Concentrated Mass</tspan></text>
    <text
       xml:space="preserve"
       style="font-size:5.64444px;font-family:Calibri;-inkscape-font-specification:Calibri;text-align:start;writing-mode:lr-tb;direction:ltr;text-anchor:start;fill:#000000;fill-opacity:0.977041;stroke:#030303;stroke-width:0.57282"
       x="156.44078"
       y="146.98502"
       id="text2-9-6"><tspan
         id="tspan2-1-1"
         style="stroke-width:0.57282"
         x="156.44078"
         y="146.98502">Link</tspan></text>
    <text
       xml:space="preserve"
       style="font-size:5.64444px;font-family:Calibri;-inkscape-font-specification:Calibri;text-align:start;writing-mode:lr-tb;direction:ltr;text-anchor:start;fill:#000000;fill-opacity:0.977041;stroke:#030303;stroke-width:0.57282"
       x="155.61743"
       y="163.27599"
       id="text2-9-6-6"><tspan
         id="tspan2-1-1-0"
         style="stroke-width:0.57282"
         x="155.61743"
         y="163.27599">Wheel</tspan></text>
    <text
       xml:space="preserve"
       style="font-size:5.64444px;font-family:Calibri;-inkscape-font-specification:Calibri;text-align:start;writing-mode:lr-tb;direction:ltr;text-anchor:start;fill:#000000;fill-opacity:0.977041;stroke:#030303;stroke-width:0.57282"
       x="155.44124"
       y="182.89619"
       id="text2-9-6-6-2"><tspan
         id="tspan2-1-1-0-5"
         style="stroke-width:0.57282"
         x="155.44124"
         y="182.89619">Cartisian Coordinate</tspan><tspan
         style="stroke-width:0.57282"
         x="155.44124"
         y="189.95175"
         id="tspan3">System</tspan></text>
    <path
       style="fill:none;fill-opacity:1;stroke:#cd351f;stroke-width:0.254372;stroke-linecap:square;stroke-linejoin:bevel;stroke-dasharray:none;stroke-dashoffset:0;stroke-opacity:0.737679"
       d="m 142.30571,184.53241 11.30263,3.82502"
       id="path17-3" />
    <path
       style="fill:none;fill-opacity:1;stroke:#cd351f;stroke-width:0.254372;stroke-linecap:square;stroke-linejoin:bevel;stroke-dasharray:none;stroke-dashoffset:0;stroke-opacity:0.737679"
       d="m 151.15124,186.06242 2.70281,2.18573"
       id="path18-3" />
    <path
       style="fill:none;fill-opacity:1;stroke:#cd351f;stroke-width:0.254372;stroke-linecap:square;stroke-linejoin:bevel;stroke-dasharray:none;stroke-dashoffset:0;stroke-opacity:0.737679"
       d="m 150.07408,188.71066 3.68564,-0.32785"
       id="path19-5" />
    <path
       style="fill:none;fill-opacity:1;stroke:#28cd1f;stroke-width:0.254372;stroke-linecap:square;stroke-linejoin:bevel;stroke-dasharray:none;stroke-dashoffset:0;stroke-opacity:0.737679"
       d="m 142.30571,184.53241 8.84553,-1.63928"
       id="path20-9" />
    <path
       style="fill:none;fill-opacity:1;stroke:#28cd1f;stroke-width:0.254372;stroke-linecap:square;stroke-linejoin:bevel;stroke-dasharray:none;stroke-dashoffset:0;stroke-opacity:0.737679"
       d="m 148.3256,181.90956 3.56278,0.76499"
       id="path21-9" />
    <path
       style="fill:none;fill-opacity:1;stroke:#28cd1f;stroke-width:0.254372;stroke-linecap:square;stroke-linejoin:bevel;stroke-dasharray:none;stroke-dashoffset:0;stroke-opacity:0.737679"
       d="m 149.79986,184.96956 2.33423,-2.18572"
       id="path22-8" />
    <path
       style="fill:none;fill-opacity:1;stroke:#28cd1f;stroke-width:0.254372;stroke-linecap:square;stroke-linejoin:bevel;stroke-dasharray:none;stroke-dashoffset:0;stroke-opacity:0.737679"
       d="m 142.55142,184.31385 c 0,-0.21858 0,-0.43714 0,0 z"
       id="path23-1" />
    <path
       style="fill:none;fill-opacity:1;stroke:#1f2dcd;stroke-width:0.254372;stroke-linecap:square;stroke-linejoin:bevel;stroke-dasharray:none;stroke-dashoffset:0;stroke-opacity:0.737679"
       d="m 142.42857,183.65813 0.49142,-12.13073"
       id="path24-8" />
    <path
       style="fill:none;fill-opacity:1;stroke:#1f2dcd;stroke-width:0.254372;stroke-linecap:square;stroke-linejoin:bevel;stroke-dasharray:none;stroke-dashoffset:0;stroke-opacity:0.737679"
       d="m 143.90282,174.80597 -0.85998,-3.60643"
       id="path25-2" />
    <path
       style="fill:none;fill-opacity:1;stroke:#1f2dcd;stroke-width:0.254372;stroke-linecap:square;stroke-linejoin:bevel;stroke-dasharray:none;stroke-dashoffset:0;stroke-opacity:0.737679"
       d="m 141.44573,173.93168 1.47426,-2.73214"
       id="path26-6" />
  </g>
</svg>
